HIERARCHY
ROOT Hips
{
  OFFSET 7.333 -26.027 -164.856
  CHANNELS 6 Xposition Yposition Zposition Zrotation Xrotation Yrotation
  JOINT LeftUpLeg
  {
    OFFSET 10.092 0.000 0.000
    CHANNELS 3 Zrotation Xrotation Yrotation
    JOINT LeftLeg
    {
      OFFSET 0.000 -38.160 -0.000
    CHANNELS 3 Zrotation Xrotation Yrotation
      JOINT LeftFoot
      {
        OFFSET -0.000 -24.040 0.000
    CHANNELS 3 Zrotation Xrotation Yrotation
        End Site
        {
          OFFSET -0.000 0.000 12.945
        }
      }
    }
  }
  JOINT RightUpLeg
  {
    OFFSET -10.092 -0.000 0.000
    CHANNELS 3 Zrotation Xrotation Yrotation
    JOINT RightLeg
    {
      OFFSET 0.000 -33.046 0.000
    CHANNELS 3 Zrotation Xrotation Yrotation
      JOINT RightFoot
      {
        OFFSET 0.000 -22.031 -0.000
    CHANNELS 3 Zrotation Xrotation Yrotation
        End Site
        {
          OFFSET 0.000 -0.000 11.863
        }
      }
    }
  }
  JOINT Spine
  {
    OFFSET -0.000 16.511 0.000
    CHANNELS 3 Zrotation Xrotation Yrotation
    JOINT LeftShoulder
    {
      OFFSET 0 16.511 0
    CHANNELS 3 Zrotation Xrotation Yrotation
      JOINT LeftArm
      {
        OFFSET 16.337 0.000 0.000
    CHANNELS 3 Zrotation Xrotation Yrotation
        JOINT LeftForeArm
        {
          OFFSET 0.000 -24.030 0.000
    CHANNELS 3 Zrotation Xrotation Yrotation
          JOINT LeftHand
          {
            OFFSET 0.000 -17.629 -0.000
    CHANNELS 3 Zrotation Xrotation Yrotation
            End Site
            {
              OFFSET 0.000 -11.753 -0.000
            }
          }
        }
      }
    }
    JOINT RightShoulder
    {
      OFFSET 0 16.511 0
    CHANNELS 3 Zrotation Xrotation Yrotation
      JOINT RightArm
      {
        OFFSET -16.337 0.000 0.000
    CHANNELS 3 Zrotation Xrotation Yrotation
        JOINT RightForeArm
        {
          OFFSET -0.000 -19.534 0.000
    CHANNELS 3 Zrotation Xrotation Yrotation
          JOINT RightHand
          {
            OFFSET 0.000 -19.514 -0.000
    CHANNELS 3 Zrotation Xrotation Yrotation
            End Site
            {
              OFFSET 0.000 -13.010 -0.000
            }
          }
        }
      }
    }
    JOINT Neck
    {
      OFFSET -0.000 16.511 0.000
    CHANNELS 3 Zrotation Xrotation Yrotation
      JOINT Head
      {
        OFFSET -0.000 12.493 -0.000
    CHANNELS 3 Zrotation Xrotation Yrotation
        End Site
        {
          OFFSET -0.000 8.328 -0.000
        }
      }
    }
  }
}
MOTION
Frames: 8
Frame Time: 0.0333333
0 0 0 1.531836e+00 2.010634e+00 -6.609917e+00 -4.250693e+00 8.098305e+00 5.998720e-01 9.835440e+00 -1.464050e+01 1.426590e+00 0 NaN -4.675603e-08 -1.313523e+00 1.011998e+01 2.309881e-01 1.775386e-01 -2.040270e+01 -3.906290e-01 0 -1.387238e-07 NaN 6.847087e-08 -3.123437e-08 -3.700000e-05 0 0 0 3.934690e+01 -3.876666e+00 4.511154e+00 8.489053e+01 -1.074620e+01 1.221434e+02 NaN NaN -1.410950e-07 0 0 0 -4.303899e+01 -1.285189e+01 2.172358e+01 -9.878780e+01 9.296018e+00 2.644136e+01 NaN NaN -6.549779e-08 1.953196e-01 1.869809e+00 8.000000e-05 0 0 NaN 
0 0 0 8.352656e-01 2.392162e+00 -6.190920e+00 -3.306296e+00 7.095778e+00 4.090083e-01 9.723050e+00 -1.427680e+01 1.596103e+00 0 -6.267776e-09 -4.822381e-08 -3.948696e-01 9.126220e+00 6.308079e-02 2.482957e-01 -1.948541e+01 -4.730561e-02 0 NaN 3.374269e-08 8.531136e-08 -2.542373e-08 -3.300388e-05 0 0 0 4.174678e+01 -1.031714e+01 -2.727845e+00 8.927950e+01 -5.316459e+00 1.242722e+02 -1.399007e-08 NaN -9.779060e-08 0 0 0 -4.145384e+01 -1.659511e+01 2.570868e+01 -1.010380e+02 8.567631e+00 NaN 1.634794e-08 NaN 1.605252e-08 -8.038847e-02 2.193703e+00 9.099069e-03 0 0 NaN 
0 0 0 6.691880e-01 2.590570e+00 -6.392530e+00 -2.396800e+00 6.830670e+00 2.852310e-01 8.916890e+00 -1.419210e+01 1.608863e+00 0 -1.279400e-08 NaN 5.499800e-01 9.176670e+00 -8.771000e-02 -7.493740e-01 -2.008140e+01 -7.088500e-02 0 NaN NaN 5.535573e-07 NaN -6.000000e-05 0 0 0 4.231061e+01 -1.672830e+01 -9.528970e+00 9.752190e+01 -2.715065e+00 1.225702e+02 -1.229068e-08 -1.606117e-07 NaN 0 0 0 -3.820234e+01 -2.093954e+01 3.204309e+01 -1.071910e+02 4.938531e+00 NaN 4.677858e-08 -2.262275e-08 NaN NaN 2.163930e+00 -2.155000e-03 0 0 8.249473e-08 
0 0 0 7.621540e-01 2.086350e+00 -6.709010e+00 -2.186300e+00 7.062510e+00 2.698326e-01 8.171570e+00 -1.380190e+01 1.437564e+00 0 NaN NaN 3.340530e-01 9.232557e+00 -5.356200e-02 -4.593060e-01 -1.907510e+01 -4.249671e-02 0 -3.852040e-08 -2.393433e-10 NaN -1.183205e-08 2.100000e-05 0 0 0 4.097309e+01 -2.431474e+01 -1.805915e+01 1.046840e+02 -3.850809e+00 1.255818e+02 1.551199e-07 NaN NaN 0 0 0 -3.479785e+01 -3.026796e+01 4.225526e+01 -1.101690e+02 2.514397e+00 3.913518e+01 6.705666e-08 -1.059466e-07 -5.981930e-08 -1.175054e-01 1.779025e+00 -1.118400e-02 0 0 NaN 
0 0 0 5.323360e-01 1.384000e+00 -7.272340e+00 -2.848917e+00 8.414800e+00 4.169591e-01 9.500460e+00 -1.512100e+01 1.748689e+00 0 -9.024971e-09 -2.944541e-08 3.289820e-01 1.060357e+01 -6.057800e-02 -2.753609e-01 -2.078600e+01 1.661408e-02 0 -1.374547e-07 2.168788e-07 NaN -2.016358e-08 8.000000e-05 0 0 0 3.791487e+01 -3.161685e+01 -2.787501e+01 1.121040e+02 -8.680660e+00 1.246370e+02 NaN NaN -5.067228e-08 0 0 0 -2.891234e+01 -3.864863e+01 5.336062e+01 -1.109740e+02 -3.331597e+00 NaN NaN NaN 8.964031e-08 -8.921570e-02 1.538770e+00 -1.136500e-02 0 0 NaN 
0 0 0 4.972250e-01 1.309260e+00 -7.437396e+00 -2.867010e+00 8.759970e+00 4.369910e-01 9.725030e+00 -1.587930e+01 1.894010e+00 0 -1.295638e-08 -1.619137e-08 1.916300e-01 9.356096e+00 -3.113500e-02 6.877200e-02 -1.830420e+01 8.097800e-02 0 NaN NaN 7.723264e-07 5.762154e-08 1.300000e-05 0 0 0 3.189705e+01 -3.970486e+01 -4.123985e+01 1.154790e+02 -1.450970e+01 1.220420e+02 NaN -1.951382e-07 -8.519136e-08 0 0 0 -1.737439e+01 -4.723780e+01 6.981234e+01 -1.096060e+02 -8.044315e+00 NaN NaN NaN NaN 4.187000e-03 1.761681e+00 -3.524000e-03 0 0 -1.479821e-07 
0 0 0 7.139880e-01 1.024004e+00 -5.503677e+00 -2.454752e+00 9.501230e+00 4.045590e-01 8.711540e+00 -1.671109e+01 1.817320e+00 0 -7.763975e-09 -2.296533e-08 5.564230e-01 9.763090e+00 -9.435400e-02 -7.405670e-01 -1.787670e+01 -5.900700e-02 0 NaN NaN NaN NaN 9.700000e-05 0 0 0 2.083040e+01 -4.667139e+01 -5.930503e+01 1.156058e+02 -2.183961e+01 1.249123e+02 -1.121230e-07 NaN 1.815526e-07 0 0 0 -2.320740e+00 -5.399037e+01 8.801450e+01 -1.055910e+02 -1.328040e+01 1.146949e-01 8.023554e-08 -8.779296e-08 -1.136028e-07 8.588295e-02 1.419316e+00 1.735000e-03 0 0 NaN 
0 0 0 3.145900e-01 3.984501e-01 -3.326430e+00 -1.682488e+00 9.654939e+00 2.825248e-01 8.091830e+00 -1.635269e+01 1.818596e+00 0 -5.745376e-09 -1.957691e-08 1.318520e+00 1.100070e+01 -2.519910e-01 -1.359684e+00 -1.879578e+01 -2.125000e-02 0 -2.837768e-08 -1.130672e-08 NaN NaN 2.398753e-05 0 0 0 8.660680e+00 -4.673087e+01 -7.608564e+01 1.131660e+02 -3.027187e+01 1.248129e+02 -1.310399e-10 NaN NaN 0 0 0 -2.666760e+00 -4.813790e+01 8.717980e+01 -1.083780e+02 -2.759016e+01 NaN 1.919834e-07 -1.976549e-07 5.653355e-09 -8.371822e-02 5.525288e-01 1.488794e-04 0 0 NaN 
